<mxfile host="app.diagrams.net" agent="Mozilla/5.0 (Windows NT 10.0; Win64; x64) AppleWebKit/537.36 (KHTML, like Gecko) Chrome/130.0.0.0 Safari/537.36" version="24.8.0">
  <diagram name="Page-1" id="gK89Cgnh6Htc5QecQ3WM">
    <mxGraphModel dx="3718" dy="2576" grid="1" gridSize="10" guides="1" tooltips="1" connect="1" arrows="1" fold="1" page="1" pageScale="1" pageWidth="850" pageHeight="1100" math="0" shadow="0">
      <root>
        <mxCell id="0" />
        <mxCell id="1" parent="0" />
        <mxCell id="Ff_WdvhhRBHIiXIWQYBH-10" style="rounded=0;orthogonalLoop=1;jettySize=auto;html=1;exitX=1;exitY=0.5;exitDx=0;exitDy=0;entryX=0;entryY=0.5;entryDx=0;entryDy=0;endArrow=none;endFill=0;" edge="1" parent="1" source="Ff_WdvhhRBHIiXIWQYBH-1" target="Ff_WdvhhRBHIiXIWQYBH-6">
          <mxGeometry relative="1" as="geometry" />
        </mxCell>
        <mxCell id="Ff_WdvhhRBHIiXIWQYBH-16" style="rounded=0;orthogonalLoop=1;jettySize=auto;html=1;exitX=0.5;exitY=1;exitDx=0;exitDy=0;entryX=0.5;entryY=0;entryDx=0;entryDy=0;endArrow=none;endFill=0;" edge="1" parent="1" source="Ff_WdvhhRBHIiXIWQYBH-1" target="Ff_WdvhhRBHIiXIWQYBH-9">
          <mxGeometry relative="1" as="geometry" />
        </mxCell>
        <mxCell id="Ff_WdvhhRBHIiXIWQYBH-115" style="rounded=0;orthogonalLoop=1;jettySize=auto;html=1;exitX=1;exitY=1;exitDx=0;exitDy=0;entryX=0;entryY=0.5;entryDx=0;entryDy=0;endArrow=none;endFill=0;" edge="1" parent="1" source="Ff_WdvhhRBHIiXIWQYBH-1" target="Ff_WdvhhRBHIiXIWQYBH-104">
          <mxGeometry relative="1" as="geometry" />
        </mxCell>
        <mxCell id="Ff_WdvhhRBHIiXIWQYBH-116" style="rounded=0;orthogonalLoop=1;jettySize=auto;html=1;exitX=0.25;exitY=1;exitDx=0;exitDy=0;entryX=1;entryY=0;entryDx=0;entryDy=0;endArrow=none;endFill=0;" edge="1" parent="1" source="Ff_WdvhhRBHIiXIWQYBH-1" target="Ff_WdvhhRBHIiXIWQYBH-108">
          <mxGeometry relative="1" as="geometry" />
        </mxCell>
        <mxCell id="Ff_WdvhhRBHIiXIWQYBH-1" value="&lt;b&gt;Colonist&lt;/b&gt;" style="rounded=0;whiteSpace=wrap;html=1;" vertex="1" parent="1">
          <mxGeometry x="360" y="345" width="120" height="30" as="geometry" />
        </mxCell>
        <mxCell id="Ff_WdvhhRBHIiXIWQYBH-62" style="rounded=0;orthogonalLoop=1;jettySize=auto;html=1;exitX=0.5;exitY=1;exitDx=0;exitDy=0;entryX=0.5;entryY=0;entryDx=0;entryDy=0;endArrow=none;endFill=0;" edge="1" parent="1" source="Ff_WdvhhRBHIiXIWQYBH-2" target="Ff_WdvhhRBHIiXIWQYBH-61">
          <mxGeometry relative="1" as="geometry" />
        </mxCell>
        <mxCell id="Ff_WdvhhRBHIiXIWQYBH-63" style="rounded=0;orthogonalLoop=1;jettySize=auto;html=1;exitX=0.5;exitY=0;exitDx=0;exitDy=0;entryX=0.5;entryY=1;entryDx=0;entryDy=0;endArrow=none;endFill=0;" edge="1" parent="1" source="Ff_WdvhhRBHIiXIWQYBH-2" target="Ff_WdvhhRBHIiXIWQYBH-60">
          <mxGeometry relative="1" as="geometry" />
        </mxCell>
        <mxCell id="Ff_WdvhhRBHIiXIWQYBH-64" style="rounded=0;orthogonalLoop=1;jettySize=auto;html=1;exitX=0.75;exitY=0;exitDx=0;exitDy=0;entryX=0.5;entryY=1;entryDx=0;entryDy=0;endArrow=none;endFill=0;" edge="1" parent="1" source="Ff_WdvhhRBHIiXIWQYBH-2" target="Ff_WdvhhRBHIiXIWQYBH-57">
          <mxGeometry relative="1" as="geometry" />
        </mxCell>
        <mxCell id="Ff_WdvhhRBHIiXIWQYBH-65" style="rounded=0;orthogonalLoop=1;jettySize=auto;html=1;exitX=0.75;exitY=1;exitDx=0;exitDy=0;entryX=0.5;entryY=0;entryDx=0;entryDy=0;endArrow=none;endFill=0;" edge="1" parent="1" source="Ff_WdvhhRBHIiXIWQYBH-2" target="Ff_WdvhhRBHIiXIWQYBH-59">
          <mxGeometry relative="1" as="geometry" />
        </mxCell>
        <mxCell id="Ff_WdvhhRBHIiXIWQYBH-67" style="rounded=0;orthogonalLoop=1;jettySize=auto;html=1;exitX=1;exitY=0.25;exitDx=0;exitDy=0;entryX=0;entryY=0.5;entryDx=0;entryDy=0;endArrow=none;endFill=0;" edge="1" parent="1" source="Ff_WdvhhRBHIiXIWQYBH-2" target="Ff_WdvhhRBHIiXIWQYBH-56">
          <mxGeometry relative="1" as="geometry" />
        </mxCell>
        <mxCell id="Ff_WdvhhRBHIiXIWQYBH-68" style="rounded=0;orthogonalLoop=1;jettySize=auto;html=1;exitX=1;exitY=0.5;exitDx=0;exitDy=0;entryX=0;entryY=0.5;entryDx=0;entryDy=0;endArrow=none;endFill=0;" edge="1" parent="1" source="Ff_WdvhhRBHIiXIWQYBH-2" target="Ff_WdvhhRBHIiXIWQYBH-55">
          <mxGeometry relative="1" as="geometry" />
        </mxCell>
        <mxCell id="Ff_WdvhhRBHIiXIWQYBH-2" value="&lt;b&gt;Dependents&lt;/b&gt;" style="rounded=0;whiteSpace=wrap;html=1;" vertex="1" parent="1">
          <mxGeometry x="960" y="345" width="120" height="30" as="geometry" />
        </mxCell>
        <mxCell id="Ff_WdvhhRBHIiXIWQYBH-13" style="rounded=0;orthogonalLoop=1;jettySize=auto;html=1;exitX=1;exitY=0.5;exitDx=0;exitDy=0;entryX=0;entryY=0.5;entryDx=0;entryDy=0;endArrow=none;endFill=0;" edge="1" parent="1" source="Ff_WdvhhRBHIiXIWQYBH-3" target="Ff_WdvhhRBHIiXIWQYBH-7">
          <mxGeometry relative="1" as="geometry" />
        </mxCell>
        <mxCell id="Ff_WdvhhRBHIiXIWQYBH-51" style="rounded=0;orthogonalLoop=1;jettySize=auto;html=1;exitX=0.5;exitY=1;exitDx=0;exitDy=0;entryX=0.5;entryY=0;entryDx=0;entryDy=0;endArrow=none;endFill=0;" edge="1" parent="1" source="Ff_WdvhhRBHIiXIWQYBH-3" target="Ff_WdvhhRBHIiXIWQYBH-50">
          <mxGeometry relative="1" as="geometry" />
        </mxCell>
        <mxCell id="Ff_WdvhhRBHIiXIWQYBH-52" style="rounded=0;orthogonalLoop=1;jettySize=auto;html=1;exitX=0;exitY=1;exitDx=0;exitDy=0;entryX=1;entryY=0;entryDx=0;entryDy=0;endArrow=none;endFill=0;" edge="1" parent="1" source="Ff_WdvhhRBHIiXIWQYBH-3" target="Ff_WdvhhRBHIiXIWQYBH-48">
          <mxGeometry relative="1" as="geometry" />
        </mxCell>
        <mxCell id="Ff_WdvhhRBHIiXIWQYBH-3" value="&lt;b&gt;Job&lt;/b&gt;" style="rounded=0;whiteSpace=wrap;html=1;" vertex="1" parent="1">
          <mxGeometry x="-180" y="345" width="120" height="30" as="geometry" />
        </mxCell>
        <mxCell id="Ff_WdvhhRBHIiXIWQYBH-15" style="rounded=0;orthogonalLoop=1;jettySize=auto;html=1;exitX=0.5;exitY=1;exitDx=0;exitDy=0;entryX=0.5;entryY=0;entryDx=0;entryDy=0;endArrow=none;endFill=0;" edge="1" parent="1" source="Ff_WdvhhRBHIiXIWQYBH-4" target="Ff_WdvhhRBHIiXIWQYBH-8">
          <mxGeometry relative="1" as="geometry" />
        </mxCell>
        <mxCell id="Ff_WdvhhRBHIiXIWQYBH-44" style="rounded=0;orthogonalLoop=1;jettySize=auto;html=1;exitX=1;exitY=0;exitDx=0;exitDy=0;entryX=0;entryY=1;entryDx=0;entryDy=0;endArrow=none;endFill=0;" edge="1" parent="1" source="Ff_WdvhhRBHIiXIWQYBH-4" target="Ff_WdvhhRBHIiXIWQYBH-39">
          <mxGeometry relative="1" as="geometry" />
        </mxCell>
        <mxCell id="Ff_WdvhhRBHIiXIWQYBH-45" style="rounded=0;orthogonalLoop=1;jettySize=auto;html=1;exitX=1;exitY=0.5;exitDx=0;exitDy=0;entryX=0;entryY=0.5;entryDx=0;entryDy=0;endArrow=none;endFill=0;" edge="1" parent="1" source="Ff_WdvhhRBHIiXIWQYBH-4" target="Ff_WdvhhRBHIiXIWQYBH-41">
          <mxGeometry relative="1" as="geometry" />
        </mxCell>
        <mxCell id="Ff_WdvhhRBHIiXIWQYBH-4" value="&lt;b&gt;House&lt;/b&gt;" style="rounded=0;whiteSpace=wrap;html=1;" vertex="1" parent="1">
          <mxGeometry x="360" y="-100" width="120" height="30" as="geometry" />
        </mxCell>
        <mxCell id="Ff_WdvhhRBHIiXIWQYBH-22" style="rounded=0;orthogonalLoop=1;jettySize=auto;html=1;exitX=1;exitY=0.5;exitDx=0;exitDy=0;entryX=0;entryY=0.5;entryDx=0;entryDy=0;endArrow=none;endFill=0;" edge="1" parent="1" source="Ff_WdvhhRBHIiXIWQYBH-5" target="Ff_WdvhhRBHIiXIWQYBH-20">
          <mxGeometry relative="1" as="geometry" />
        </mxCell>
        <mxCell id="Ff_WdvhhRBHIiXIWQYBH-5" value="&lt;b&gt;Trip&lt;/b&gt;" style="rounded=0;whiteSpace=wrap;html=1;" vertex="1" parent="1">
          <mxGeometry x="360" y="905" width="120" height="30" as="geometry" />
        </mxCell>
        <mxCell id="Ff_WdvhhRBHIiXIWQYBH-11" style="rounded=0;orthogonalLoop=1;jettySize=auto;html=1;exitX=1;exitY=0.5;exitDx=0;exitDy=0;entryX=0;entryY=0.5;entryDx=0;entryDy=0;endArrow=none;endFill=0;" edge="1" parent="1" source="Ff_WdvhhRBHIiXIWQYBH-6" target="Ff_WdvhhRBHIiXIWQYBH-2">
          <mxGeometry relative="1" as="geometry" />
        </mxCell>
        <mxCell id="Ff_WdvhhRBHIiXIWQYBH-6" value="have" style="rhombus;whiteSpace=wrap;html=1;" vertex="1" parent="1">
          <mxGeometry x="710" y="320" width="80" height="80" as="geometry" />
        </mxCell>
        <mxCell id="Ff_WdvhhRBHIiXIWQYBH-12" style="rounded=0;orthogonalLoop=1;jettySize=auto;html=1;exitX=1;exitY=0.5;exitDx=0;exitDy=0;entryX=0;entryY=0.5;entryDx=0;entryDy=0;endArrow=none;endFill=0;" edge="1" parent="1" source="Ff_WdvhhRBHIiXIWQYBH-7" target="Ff_WdvhhRBHIiXIWQYBH-1">
          <mxGeometry relative="1" as="geometry" />
        </mxCell>
        <mxCell id="Ff_WdvhhRBHIiXIWQYBH-7" value="has" style="rhombus;whiteSpace=wrap;html=1;" vertex="1" parent="1">
          <mxGeometry x="50" y="320" width="80" height="80" as="geometry" />
        </mxCell>
        <mxCell id="Ff_WdvhhRBHIiXIWQYBH-14" style="rounded=0;orthogonalLoop=1;jettySize=auto;html=1;exitX=0.5;exitY=1;exitDx=0;exitDy=0;entryX=0.5;entryY=0;entryDx=0;entryDy=0;endArrow=none;endFill=0;" edge="1" parent="1" source="Ff_WdvhhRBHIiXIWQYBH-8" target="Ff_WdvhhRBHIiXIWQYBH-1">
          <mxGeometry relative="1" as="geometry" />
        </mxCell>
        <mxCell id="Ff_WdvhhRBHIiXIWQYBH-8" value="check" style="rhombus;whiteSpace=wrap;html=1;" vertex="1" parent="1">
          <mxGeometry x="381" y="-10" width="80" height="80" as="geometry" />
        </mxCell>
        <mxCell id="Ff_WdvhhRBHIiXIWQYBH-17" style="rounded=0;orthogonalLoop=1;jettySize=auto;html=1;exitX=0.5;exitY=1;exitDx=0;exitDy=0;entryX=0.5;entryY=0;entryDx=0;entryDy=0;endArrow=none;endFill=0;" edge="1" parent="1" source="Ff_WdvhhRBHIiXIWQYBH-9" target="Ff_WdvhhRBHIiXIWQYBH-5">
          <mxGeometry relative="1" as="geometry" />
        </mxCell>
        <mxCell id="Ff_WdvhhRBHIiXIWQYBH-9" value="have" style="rhombus;whiteSpace=wrap;html=1;" vertex="1" parent="1">
          <mxGeometry x="380" y="755" width="80" height="80" as="geometry" />
        </mxCell>
        <mxCell id="Ff_WdvhhRBHIiXIWQYBH-83" style="rounded=0;orthogonalLoop=1;jettySize=auto;html=1;exitX=1;exitY=0.5;exitDx=0;exitDy=0;endArrow=none;endFill=0;" edge="1" parent="1" source="Ff_WdvhhRBHIiXIWQYBH-18" target="Ff_WdvhhRBHIiXIWQYBH-77">
          <mxGeometry relative="1" as="geometry" />
        </mxCell>
        <mxCell id="Ff_WdvhhRBHIiXIWQYBH-84" style="rounded=0;orthogonalLoop=1;jettySize=auto;html=1;exitX=1;exitY=0.25;exitDx=0;exitDy=0;entryX=0;entryY=0.5;entryDx=0;entryDy=0;endArrow=none;endFill=0;" edge="1" parent="1" source="Ff_WdvhhRBHIiXIWQYBH-18" target="Ff_WdvhhRBHIiXIWQYBH-80">
          <mxGeometry relative="1" as="geometry" />
        </mxCell>
        <mxCell id="Ff_WdvhhRBHIiXIWQYBH-85" style="rounded=0;orthogonalLoop=1;jettySize=auto;html=1;exitX=1;exitY=0;exitDx=0;exitDy=0;entryX=0;entryY=1;entryDx=0;entryDy=0;endArrow=none;endFill=0;" edge="1" parent="1" source="Ff_WdvhhRBHIiXIWQYBH-18" target="Ff_WdvhhRBHIiXIWQYBH-81">
          <mxGeometry relative="1" as="geometry" />
        </mxCell>
        <mxCell id="Ff_WdvhhRBHIiXIWQYBH-86" style="rounded=0;orthogonalLoop=1;jettySize=auto;html=1;exitX=1;exitY=0.75;exitDx=0;exitDy=0;entryX=0;entryY=0.5;entryDx=0;entryDy=0;endArrow=none;endFill=0;" edge="1" parent="1" source="Ff_WdvhhRBHIiXIWQYBH-18" target="Ff_WdvhhRBHIiXIWQYBH-82">
          <mxGeometry relative="1" as="geometry" />
        </mxCell>
        <mxCell id="Ff_WdvhhRBHIiXIWQYBH-87" style="rounded=0;orthogonalLoop=1;jettySize=auto;html=1;exitX=1;exitY=1;exitDx=0;exitDy=0;entryX=0;entryY=0;entryDx=0;entryDy=0;endArrow=none;endFill=0;" edge="1" parent="1" source="Ff_WdvhhRBHIiXIWQYBH-18" target="Ff_WdvhhRBHIiXIWQYBH-78">
          <mxGeometry relative="1" as="geometry" />
        </mxCell>
        <mxCell id="Ff_WdvhhRBHIiXIWQYBH-88" style="rounded=0;orthogonalLoop=1;jettySize=auto;html=1;exitX=0.75;exitY=1;exitDx=0;exitDy=0;entryX=0.5;entryY=0;entryDx=0;entryDy=0;endArrow=none;endFill=0;" edge="1" parent="1" source="Ff_WdvhhRBHIiXIWQYBH-18" target="Ff_WdvhhRBHIiXIWQYBH-79">
          <mxGeometry relative="1" as="geometry" />
        </mxCell>
        <mxCell id="Ff_WdvhhRBHIiXIWQYBH-18" value="&lt;b&gt;Jet&lt;/b&gt;" style="rounded=0;whiteSpace=wrap;html=1;" vertex="1" parent="1">
          <mxGeometry x="960" y="780" width="120" height="30" as="geometry" />
        </mxCell>
        <mxCell id="Ff_WdvhhRBHIiXIWQYBH-21" style="rounded=0;orthogonalLoop=1;jettySize=auto;html=1;entryX=0;entryY=0.5;entryDx=0;entryDy=0;endArrow=none;endFill=0;" edge="1" parent="1" source="Ff_WdvhhRBHIiXIWQYBH-20" target="Ff_WdvhhRBHIiXIWQYBH-18">
          <mxGeometry relative="1" as="geometry" />
        </mxCell>
        <mxCell id="Ff_WdvhhRBHIiXIWQYBH-20" value="assigned" style="rhombus;whiteSpace=wrap;html=1;" vertex="1" parent="1">
          <mxGeometry x="710" y="755" width="80" height="80" as="geometry" />
        </mxCell>
        <mxCell id="Ff_WdvhhRBHIiXIWQYBH-98" style="rounded=0;orthogonalLoop=1;jettySize=auto;html=1;exitX=0.5;exitY=1;exitDx=0;exitDy=0;entryX=0.5;entryY=0;entryDx=0;entryDy=0;endArrow=none;endFill=0;" edge="1" parent="1" source="Ff_WdvhhRBHIiXIWQYBH-23" target="Ff_WdvhhRBHIiXIWQYBH-89">
          <mxGeometry relative="1" as="geometry" />
        </mxCell>
        <mxCell id="Ff_WdvhhRBHIiXIWQYBH-99" style="rounded=0;orthogonalLoop=1;jettySize=auto;html=1;exitX=1;exitY=1;exitDx=0;exitDy=0;entryX=0.5;entryY=0;entryDx=0;entryDy=0;endArrow=none;endFill=0;" edge="1" parent="1" source="Ff_WdvhhRBHIiXIWQYBH-23" target="Ff_WdvhhRBHIiXIWQYBH-90">
          <mxGeometry relative="1" as="geometry" />
        </mxCell>
        <mxCell id="Ff_WdvhhRBHIiXIWQYBH-100" style="rounded=0;orthogonalLoop=1;jettySize=auto;html=1;exitX=1;exitY=0.5;exitDx=0;exitDy=0;entryX=0;entryY=0;entryDx=0;entryDy=0;endArrow=none;endFill=0;" edge="1" parent="1" source="Ff_WdvhhRBHIiXIWQYBH-23" target="Ff_WdvhhRBHIiXIWQYBH-92">
          <mxGeometry relative="1" as="geometry" />
        </mxCell>
        <mxCell id="Ff_WdvhhRBHIiXIWQYBH-23" value="&lt;b&gt;Pilot&lt;/b&gt;" style="rounded=0;whiteSpace=wrap;html=1;" vertex="1" parent="1">
          <mxGeometry x="960" y="1210" width="120" height="30" as="geometry" />
        </mxCell>
        <mxCell id="Ff_WdvhhRBHIiXIWQYBH-25" style="rounded=0;orthogonalLoop=1;jettySize=auto;html=1;entryX=0.5;entryY=1;entryDx=0;entryDy=0;endArrow=none;endFill=0;" edge="1" parent="1" source="Ff_WdvhhRBHIiXIWQYBH-24" target="Ff_WdvhhRBHIiXIWQYBH-18">
          <mxGeometry relative="1" as="geometry" />
        </mxCell>
        <mxCell id="Ff_WdvhhRBHIiXIWQYBH-26" style="rounded=0;orthogonalLoop=1;jettySize=auto;html=1;exitX=0.5;exitY=1;exitDx=0;exitDy=0;entryX=0.5;entryY=0;entryDx=0;entryDy=0;endArrow=none;endFill=0;" edge="1" parent="1" source="Ff_WdvhhRBHIiXIWQYBH-24" target="Ff_WdvhhRBHIiXIWQYBH-23">
          <mxGeometry relative="1" as="geometry" />
        </mxCell>
        <mxCell id="Ff_WdvhhRBHIiXIWQYBH-24" value="assigned" style="rhombus;whiteSpace=wrap;html=1;" vertex="1" parent="1">
          <mxGeometry x="980" y="1010" width="80" height="80" as="geometry" />
        </mxCell>
        <mxCell id="Ff_WdvhhRBHIiXIWQYBH-27" value="&lt;b&gt;1&lt;/b&gt;" style="text;html=1;align=center;verticalAlign=middle;resizable=0;points=[];autosize=1;strokeColor=none;fillColor=none;" vertex="1" parent="1">
          <mxGeometry x="390" y="-70" width="30" height="30" as="geometry" />
        </mxCell>
        <mxCell id="Ff_WdvhhRBHIiXIWQYBH-28" value="&lt;b&gt;M&lt;/b&gt;" style="text;html=1;align=center;verticalAlign=middle;resizable=0;points=[];autosize=1;strokeColor=none;fillColor=none;" vertex="1" parent="1">
          <mxGeometry x="-60" y="330" width="30" height="30" as="geometry" />
        </mxCell>
        <mxCell id="Ff_WdvhhRBHIiXIWQYBH-29" value="&lt;b&gt;1&lt;/b&gt;" style="text;html=1;align=center;verticalAlign=middle;resizable=0;points=[];autosize=1;strokeColor=none;fillColor=none;" vertex="1" parent="1">
          <mxGeometry x="312" y="338" width="30" height="30" as="geometry" />
        </mxCell>
        <mxCell id="Ff_WdvhhRBHIiXIWQYBH-30" value="&lt;b&gt;M&lt;/b&gt;" style="text;html=1;align=center;verticalAlign=middle;resizable=0;points=[];autosize=1;strokeColor=none;fillColor=none;" vertex="1" parent="1">
          <mxGeometry x="390" y="315" width="30" height="30" as="geometry" />
        </mxCell>
        <mxCell id="Ff_WdvhhRBHIiXIWQYBH-31" value="&lt;b&gt;1&lt;/b&gt;" style="text;html=1;align=center;verticalAlign=middle;resizable=0;points=[];autosize=1;strokeColor=none;fillColor=none;" vertex="1" parent="1">
          <mxGeometry x="481" y="340" width="30" height="30" as="geometry" />
        </mxCell>
        <mxCell id="Ff_WdvhhRBHIiXIWQYBH-32" value="&lt;b&gt;M&lt;/b&gt;" style="text;html=1;align=center;verticalAlign=middle;resizable=0;points=[];autosize=1;strokeColor=none;fillColor=none;" vertex="1" parent="1">
          <mxGeometry x="930" y="330" width="30" height="30" as="geometry" />
        </mxCell>
        <mxCell id="Ff_WdvhhRBHIiXIWQYBH-33" value="&lt;b&gt;1&lt;/b&gt;" style="text;html=1;align=center;verticalAlign=middle;resizable=0;points=[];autosize=1;strokeColor=none;fillColor=none;" vertex="1" parent="1">
          <mxGeometry x="420" y="875" width="30" height="30" as="geometry" />
        </mxCell>
        <mxCell id="Ff_WdvhhRBHIiXIWQYBH-34" value="&lt;b&gt;M&lt;/b&gt;" style="text;html=1;align=center;verticalAlign=middle;resizable=0;points=[];autosize=1;strokeColor=none;fillColor=none;" vertex="1" parent="1">
          <mxGeometry x="478" y="918" width="30" height="30" as="geometry" />
        </mxCell>
        <mxCell id="Ff_WdvhhRBHIiXIWQYBH-35" value="&lt;b&gt;1&lt;/b&gt;" style="text;html=1;align=center;verticalAlign=middle;resizable=0;points=[];autosize=1;strokeColor=none;fillColor=none;" vertex="1" parent="1">
          <mxGeometry x="930" y="763" width="30" height="30" as="geometry" />
        </mxCell>
        <mxCell id="Ff_WdvhhRBHIiXIWQYBH-36" value="&lt;b&gt;1&lt;/b&gt;" style="text;html=1;align=center;verticalAlign=middle;resizable=0;points=[];autosize=1;strokeColor=none;fillColor=none;" vertex="1" parent="1">
          <mxGeometry x="990" y="810" width="30" height="30" as="geometry" />
        </mxCell>
        <mxCell id="Ff_WdvhhRBHIiXIWQYBH-37" value="&lt;b&gt;1&lt;/b&gt;" style="text;html=1;align=center;verticalAlign=middle;resizable=0;points=[];autosize=1;strokeColor=none;fillColor=none;" vertex="1" parent="1">
          <mxGeometry x="990" y="1180" width="30" height="30" as="geometry" />
        </mxCell>
        <mxCell id="Ff_WdvhhRBHIiXIWQYBH-43" style="rounded=0;orthogonalLoop=1;jettySize=auto;html=1;exitX=0.5;exitY=1;exitDx=0;exitDy=0;entryX=0.5;entryY=0;entryDx=0;entryDy=0;endArrow=none;endFill=0;" edge="1" parent="1" source="Ff_WdvhhRBHIiXIWQYBH-38" target="Ff_WdvhhRBHIiXIWQYBH-4">
          <mxGeometry relative="1" as="geometry" />
        </mxCell>
        <mxCell id="Ff_WdvhhRBHIiXIWQYBH-38" value="&lt;b&gt;&lt;span style=&quot;line-height: 107%;&quot;&gt;&lt;u style=&quot;&quot;&gt;&lt;font style=&quot;font-size: 14px;&quot;&gt;LotNumber&lt;/font&gt;&lt;/u&gt;&lt;/span&gt;&lt;/b&gt;&lt;span style=&quot;font-size:12.0pt;line-height:107%;font-family:&amp;quot;Times New Roman&amp;quot;,serif;&lt;br/&gt;mso-fareast-font-family:&amp;quot;Times New Roman&amp;quot;;mso-ansi-language:EN-US;mso-fareast-language:&lt;br/&gt;EN-US;mso-bidi-language:AR-SA&quot;&gt;&lt;/span&gt;" style="ellipse;whiteSpace=wrap;html=1;" vertex="1" parent="1">
          <mxGeometry x="361" y="-300" width="120" height="40" as="geometry" />
        </mxCell>
        <mxCell id="Ff_WdvhhRBHIiXIWQYBH-39" value="&lt;b style=&quot;&quot;&gt;&lt;font style=&quot;font-size: 12px;&quot;&gt;NumberOfRooms&lt;/font&gt;&lt;/b&gt;" style="ellipse;whiteSpace=wrap;html=1;" vertex="1" parent="1">
          <mxGeometry x="540" y="-260" width="120" height="40" as="geometry" />
        </mxCell>
        <mxCell id="Ff_WdvhhRBHIiXIWQYBH-42" style="rounded=0;orthogonalLoop=1;jettySize=auto;html=1;exitX=1;exitY=1;exitDx=0;exitDy=0;entryX=0.175;entryY=0.01;entryDx=0;entryDy=0;endArrow=none;endFill=0;entryPerimeter=0;" edge="1" parent="1" source="Ff_WdvhhRBHIiXIWQYBH-40" target="Ff_WdvhhRBHIiXIWQYBH-4">
          <mxGeometry relative="1" as="geometry" />
        </mxCell>
        <mxCell id="Ff_WdvhhRBHIiXIWQYBH-40" value="&lt;b&gt;SquareFeet&lt;/b&gt;" style="ellipse;whiteSpace=wrap;html=1;" vertex="1" parent="1">
          <mxGeometry x="180" y="-260" width="120" height="40" as="geometry" />
        </mxCell>
        <mxCell id="Ff_WdvhhRBHIiXIWQYBH-41" value="&lt;b&gt;ColonistsAssigned&lt;/b&gt;" style="ellipse;whiteSpace=wrap;html=1;" vertex="1" parent="1">
          <mxGeometry x="640" y="-150" width="120" height="40" as="geometry" />
        </mxCell>
        <mxCell id="Ff_WdvhhRBHIiXIWQYBH-53" style="rounded=0;orthogonalLoop=1;jettySize=auto;html=1;exitX=1;exitY=0.5;exitDx=0;exitDy=0;entryX=0;entryY=0.25;entryDx=0;entryDy=0;endArrow=none;endFill=0;" edge="1" parent="1" source="Ff_WdvhhRBHIiXIWQYBH-46" target="Ff_WdvhhRBHIiXIWQYBH-3">
          <mxGeometry relative="1" as="geometry" />
        </mxCell>
        <mxCell id="Ff_WdvhhRBHIiXIWQYBH-46" value="&lt;span style=&quot;font-size: 14px;&quot;&gt;&lt;b&gt;&lt;u&gt;JobID&lt;/u&gt;&lt;/b&gt;&lt;/span&gt;" style="ellipse;whiteSpace=wrap;html=1;" vertex="1" parent="1">
          <mxGeometry x="-470" y="335" width="120" height="40" as="geometry" />
        </mxCell>
        <mxCell id="Ff_WdvhhRBHIiXIWQYBH-54" style="rounded=0;orthogonalLoop=1;jettySize=auto;html=1;exitX=1;exitY=1;exitDx=0;exitDy=0;endArrow=none;endFill=0;entryX=0.25;entryY=0;entryDx=0;entryDy=0;" edge="1" parent="1" source="Ff_WdvhhRBHIiXIWQYBH-47" target="Ff_WdvhhRBHIiXIWQYBH-3">
          <mxGeometry relative="1" as="geometry">
            <mxPoint x="-160" y="340" as="targetPoint" />
          </mxGeometry>
        </mxCell>
        <mxCell id="Ff_WdvhhRBHIiXIWQYBH-47" value="&lt;b&gt;JobName&lt;/b&gt;" style="ellipse;whiteSpace=wrap;html=1;" vertex="1" parent="1">
          <mxGeometry x="-370" y="200" width="120" height="40" as="geometry" />
        </mxCell>
        <mxCell id="Ff_WdvhhRBHIiXIWQYBH-48" value="&lt;b&gt;&lt;u&gt;TripID&lt;/u&gt;&lt;/b&gt;" style="ellipse;whiteSpace=wrap;html=1;" vertex="1" parent="1">
          <mxGeometry x="-370" y="460" width="120" height="40" as="geometry" />
        </mxCell>
        <mxCell id="Ff_WdvhhRBHIiXIWQYBH-50" value="&lt;b&gt;&lt;u&gt;ColonistID&lt;/u&gt;&lt;/b&gt;" style="ellipse;whiteSpace=wrap;html=1;" vertex="1" parent="1">
          <mxGeometry x="-180" y="540" width="120" height="40" as="geometry" />
        </mxCell>
        <mxCell id="Ff_WdvhhRBHIiXIWQYBH-55" value="&lt;span style=&quot;font-size: 14px;&quot;&gt;&lt;b&gt;&lt;u&gt;DependentID&lt;/u&gt;&lt;/b&gt;&lt;/span&gt;" style="ellipse;whiteSpace=wrap;html=1;" vertex="1" parent="1">
          <mxGeometry x="1300" y="340" width="120" height="40" as="geometry" />
        </mxCell>
        <mxCell id="Ff_WdvhhRBHIiXIWQYBH-56" value="&lt;span style=&quot;font-size: 14px;&quot;&gt;&lt;b&gt;DependentName&lt;/b&gt;&lt;/span&gt;" style="ellipse;whiteSpace=wrap;html=1;" vertex="1" parent="1">
          <mxGeometry x="1240" y="250" width="120" height="40" as="geometry" />
        </mxCell>
        <mxCell id="Ff_WdvhhRBHIiXIWQYBH-57" value="&lt;span style=&quot;font-size: 14px;&quot;&gt;&lt;b&gt;DateOfBirth&lt;/b&gt;&lt;/span&gt;" style="ellipse;whiteSpace=wrap;html=1;" vertex="1" parent="1">
          <mxGeometry x="1100" y="210" width="120" height="40" as="geometry" />
        </mxCell>
        <mxCell id="Ff_WdvhhRBHIiXIWQYBH-58" value="&lt;span style=&quot;font-size: 14px;&quot;&gt;&lt;b&gt;Age&lt;/b&gt;&lt;/span&gt;" style="ellipse;whiteSpace=wrap;html=1;" vertex="1" parent="1">
          <mxGeometry x="1240" y="410" width="120" height="40" as="geometry" />
        </mxCell>
        <mxCell id="Ff_WdvhhRBHIiXIWQYBH-59" value="&lt;span style=&quot;font-size: 14px;&quot;&gt;&lt;b&gt;Gender&lt;/b&gt;&lt;/span&gt;" style="ellipse;whiteSpace=wrap;html=1;" vertex="1" parent="1">
          <mxGeometry x="1100" y="480" width="120" height="40" as="geometry" />
        </mxCell>
        <mxCell id="Ff_WdvhhRBHIiXIWQYBH-60" value="&lt;b style=&quot;&quot;&gt;&lt;font style=&quot;font-size: 12px;&quot;&gt;RelationshipToColonist&lt;/font&gt;&lt;/b&gt;" style="ellipse;whiteSpace=wrap;html=1;" vertex="1" parent="1">
          <mxGeometry x="927.5" y="160" width="155" height="40" as="geometry" />
        </mxCell>
        <mxCell id="Ff_WdvhhRBHIiXIWQYBH-61" value="&lt;span style=&quot;font-size: 14px;&quot;&gt;&lt;b&gt;&lt;u&gt;ColonistID&lt;/u&gt;&lt;/b&gt;&lt;/span&gt;" style="ellipse;whiteSpace=wrap;html=1;" vertex="1" parent="1">
          <mxGeometry x="960" y="560" width="120" height="40" as="geometry" />
        </mxCell>
        <mxCell id="Ff_WdvhhRBHIiXIWQYBH-66" style="rounded=0;orthogonalLoop=1;jettySize=auto;html=1;exitX=1;exitY=0.75;exitDx=0;exitDy=0;entryX=0.08;entryY=0.186;entryDx=0;entryDy=0;entryPerimeter=0;endArrow=none;endFill=0;" edge="1" parent="1" source="Ff_WdvhhRBHIiXIWQYBH-2" target="Ff_WdvhhRBHIiXIWQYBH-58">
          <mxGeometry relative="1" as="geometry" />
        </mxCell>
        <mxCell id="Ff_WdvhhRBHIiXIWQYBH-73" style="rounded=0;orthogonalLoop=1;jettySize=auto;html=1;exitX=0.5;exitY=0;exitDx=0;exitDy=0;entryX=0.5;entryY=1;entryDx=0;entryDy=0;endArrow=none;endFill=0;" edge="1" parent="1" source="Ff_WdvhhRBHIiXIWQYBH-69" target="Ff_WdvhhRBHIiXIWQYBH-5">
          <mxGeometry relative="1" as="geometry" />
        </mxCell>
        <mxCell id="Ff_WdvhhRBHIiXIWQYBH-69" value="&lt;span style=&quot;font-size: 14px;&quot;&gt;&lt;b&gt;&lt;u&gt;TripID&lt;/u&gt;&lt;/b&gt;&lt;/span&gt;" style="ellipse;whiteSpace=wrap;html=1;" vertex="1" parent="1">
          <mxGeometry x="359" y="1085" width="120" height="40" as="geometry" />
        </mxCell>
        <mxCell id="Ff_WdvhhRBHIiXIWQYBH-70" value="&lt;span style=&quot;font-size: 14px;&quot;&gt;&lt;b&gt;JetCode&lt;/b&gt;&lt;/span&gt;" style="ellipse;whiteSpace=wrap;html=1;" vertex="1" parent="1">
          <mxGeometry x="220" y="1035" width="120" height="40" as="geometry" />
        </mxCell>
        <mxCell id="Ff_WdvhhRBHIiXIWQYBH-76" style="rounded=0;orthogonalLoop=1;jettySize=auto;html=1;exitX=1;exitY=0.5;exitDx=0;exitDy=0;entryX=0;entryY=0.5;entryDx=0;entryDy=0;endArrow=none;endFill=0;" edge="1" parent="1" source="Ff_WdvhhRBHIiXIWQYBH-71" target="Ff_WdvhhRBHIiXIWQYBH-5">
          <mxGeometry relative="1" as="geometry" />
        </mxCell>
        <mxCell id="Ff_WdvhhRBHIiXIWQYBH-71" value="&lt;span style=&quot;font-size: 14px;&quot;&gt;&lt;b&gt;LaunchDate&lt;/b&gt;&lt;/span&gt;" style="ellipse;whiteSpace=wrap;html=1;" vertex="1" parent="1">
          <mxGeometry x="90" y="960" width="120" height="40" as="geometry" />
        </mxCell>
        <mxCell id="Ff_WdvhhRBHIiXIWQYBH-75" style="rounded=0;orthogonalLoop=1;jettySize=auto;html=1;exitX=1;exitY=0.5;exitDx=0;exitDy=0;entryX=0;entryY=0;entryDx=0;entryDy=0;endArrow=none;endFill=0;" edge="1" parent="1" source="Ff_WdvhhRBHIiXIWQYBH-72" target="Ff_WdvhhRBHIiXIWQYBH-5">
          <mxGeometry relative="1" as="geometry" />
        </mxCell>
        <mxCell id="Ff_WdvhhRBHIiXIWQYBH-72" value="&lt;span style=&quot;font-size: 14px;&quot;&gt;&lt;b&gt;ReturnDate&lt;/b&gt;&lt;/span&gt;" style="ellipse;whiteSpace=wrap;html=1;" vertex="1" parent="1">
          <mxGeometry x="90" y="835" width="120" height="40" as="geometry" />
        </mxCell>
        <mxCell id="Ff_WdvhhRBHIiXIWQYBH-74" style="rounded=0;orthogonalLoop=1;jettySize=auto;html=1;exitX=1;exitY=0;exitDx=0;exitDy=0;entryX=0.139;entryY=1.01;entryDx=0;entryDy=0;entryPerimeter=0;endArrow=none;endFill=0;" edge="1" parent="1" source="Ff_WdvhhRBHIiXIWQYBH-70" target="Ff_WdvhhRBHIiXIWQYBH-5">
          <mxGeometry relative="1" as="geometry" />
        </mxCell>
        <mxCell id="Ff_WdvhhRBHIiXIWQYBH-77" value="&lt;span style=&quot;font-size: 14px;&quot;&gt;&lt;b&gt;&lt;u&gt;JetCode&lt;/u&gt;&lt;/b&gt;&lt;/span&gt;" style="ellipse;whiteSpace=wrap;html=1;" vertex="1" parent="1">
          <mxGeometry x="1360" y="775" width="120" height="40" as="geometry" />
        </mxCell>
        <mxCell id="Ff_WdvhhRBHIiXIWQYBH-78" value="&lt;span style=&quot;font-size: 14px;&quot;&gt;&lt;b&gt;PassengerSeats&lt;/b&gt;&lt;/span&gt;" style="ellipse;whiteSpace=wrap;html=1;" vertex="1" parent="1">
          <mxGeometry x="1240" y="910" width="120" height="40" as="geometry" />
        </mxCell>
        <mxCell id="Ff_WdvhhRBHIiXIWQYBH-79" value="&lt;span style=&quot;font-size: 14px;&quot;&gt;&lt;b&gt;EngineType&lt;/b&gt;&lt;/span&gt;" style="ellipse;whiteSpace=wrap;html=1;" vertex="1" parent="1">
          <mxGeometry x="1100" y="940" width="120" height="40" as="geometry" />
        </mxCell>
        <mxCell id="Ff_WdvhhRBHIiXIWQYBH-80" value="&lt;span style=&quot;font-size: 14px;&quot;&gt;&lt;b&gt;MadeYear&lt;/b&gt;&lt;/span&gt;" style="ellipse;whiteSpace=wrap;html=1;" vertex="1" parent="1">
          <mxGeometry x="1230" y="700" width="120" height="40" as="geometry" />
        </mxCell>
        <mxCell id="Ff_WdvhhRBHIiXIWQYBH-81" value="&lt;span style=&quot;font-size: 14px;&quot;&gt;&lt;b&gt;Weight&lt;/b&gt;&lt;/span&gt;" style="ellipse;whiteSpace=wrap;html=1;" vertex="1" parent="1">
          <mxGeometry x="1100" y="660" width="120" height="40" as="geometry" />
        </mxCell>
        <mxCell id="Ff_WdvhhRBHIiXIWQYBH-82" value="&lt;span style=&quot;font-size: 14px;&quot;&gt;&lt;b&gt;PowerSource&lt;/b&gt;&lt;/span&gt;" style="ellipse;whiteSpace=wrap;html=1;" vertex="1" parent="1">
          <mxGeometry x="1360" y="850" width="120" height="40" as="geometry" />
        </mxCell>
        <mxCell id="Ff_WdvhhRBHIiXIWQYBH-89" value="&lt;span style=&quot;font-size: 14px;&quot;&gt;&lt;b&gt;&lt;u&gt;PilotID&lt;/u&gt;&lt;/b&gt;&lt;/span&gt;" style="ellipse;whiteSpace=wrap;html=1;" vertex="1" parent="1">
          <mxGeometry x="960" y="1400" width="120" height="40" as="geometry" />
        </mxCell>
        <mxCell id="Ff_WdvhhRBHIiXIWQYBH-90" value="&lt;span style=&quot;font-size: 14px;&quot;&gt;&lt;b&gt;PilotName&lt;/b&gt;&lt;/span&gt;" style="ellipse;whiteSpace=wrap;html=1;" vertex="1" parent="1">
          <mxGeometry x="1100" y="1350" width="120" height="40" as="geometry" />
        </mxCell>
        <mxCell id="Ff_WdvhhRBHIiXIWQYBH-97" style="rounded=0;orthogonalLoop=1;jettySize=auto;html=1;exitX=1;exitY=0;exitDx=0;exitDy=0;entryX=0.25;entryY=1;entryDx=0;entryDy=0;endArrow=none;endFill=0;" edge="1" parent="1" source="Ff_WdvhhRBHIiXIWQYBH-91" target="Ff_WdvhhRBHIiXIWQYBH-23">
          <mxGeometry relative="1" as="geometry" />
        </mxCell>
        <mxCell id="Ff_WdvhhRBHIiXIWQYBH-91" value="&lt;span style=&quot;font-size: 14px;&quot;&gt;&lt;b&gt;SpaceHours&lt;/b&gt;&lt;/span&gt;" style="ellipse;whiteSpace=wrap;html=1;" vertex="1" parent="1">
          <mxGeometry x="800" y="1350" width="120" height="40" as="geometry" />
        </mxCell>
        <mxCell id="Ff_WdvhhRBHIiXIWQYBH-92" value="&lt;span style=&quot;font-size: 14px;&quot;&gt;&lt;b&gt;Qualification&lt;/b&gt;&lt;/span&gt;" style="ellipse;whiteSpace=wrap;html=1;" vertex="1" parent="1">
          <mxGeometry x="1215" y="1290" width="120" height="40" as="geometry" />
        </mxCell>
        <mxCell id="Ff_WdvhhRBHIiXIWQYBH-96" style="rounded=0;orthogonalLoop=1;jettySize=auto;html=1;exitX=1;exitY=0.5;exitDx=0;exitDy=0;entryX=0;entryY=0.75;entryDx=0;entryDy=0;endArrow=none;endFill=0;" edge="1" parent="1" source="Ff_WdvhhRBHIiXIWQYBH-93" target="Ff_WdvhhRBHIiXIWQYBH-23">
          <mxGeometry relative="1" as="geometry" />
        </mxCell>
        <mxCell id="Ff_WdvhhRBHIiXIWQYBH-93" value="&lt;span style=&quot;font-size: 14px;&quot;&gt;&lt;b&gt;Designation&lt;/b&gt;&lt;/span&gt;" style="ellipse;whiteSpace=wrap;html=1;" vertex="1" parent="1">
          <mxGeometry x="690" y="1290" width="120" height="40" as="geometry" />
        </mxCell>
        <mxCell id="Ff_WdvhhRBHIiXIWQYBH-95" style="rounded=0;orthogonalLoop=1;jettySize=auto;html=1;exitX=1;exitY=0.5;exitDx=0;exitDy=0;entryX=0;entryY=0.5;entryDx=0;entryDy=0;endArrow=none;endFill=0;" edge="1" parent="1" source="Ff_WdvhhRBHIiXIWQYBH-94" target="Ff_WdvhhRBHIiXIWQYBH-23">
          <mxGeometry relative="1" as="geometry" />
        </mxCell>
        <mxCell id="Ff_WdvhhRBHIiXIWQYBH-94" value="&lt;span style=&quot;font-size: 14px;&quot;&gt;&lt;b&gt;JetCode&lt;/b&gt;&lt;/span&gt;" style="ellipse;whiteSpace=wrap;html=1;" vertex="1" parent="1">
          <mxGeometry x="620" y="1210" width="120" height="40" as="geometry" />
        </mxCell>
        <mxCell id="Ff_WdvhhRBHIiXIWQYBH-101" value="&lt;b&gt;&lt;u&gt;ColonistID&lt;/u&gt;&lt;/b&gt;" style="ellipse;whiteSpace=wrap;html=1;" vertex="1" parent="1">
          <mxGeometry x="250" y="210" width="120" height="40" as="geometry" />
        </mxCell>
        <mxCell id="Ff_WdvhhRBHIiXIWQYBH-102" value="&lt;b&gt;EarthAddress&lt;/b&gt;" style="ellipse;whiteSpace=wrap;html=1;" vertex="1" parent="1">
          <mxGeometry x="478" y="210" width="120" height="40" as="geometry" />
        </mxCell>
        <mxCell id="Ff_WdvhhRBHIiXIWQYBH-103" value="&lt;b&gt;DateOfBirth&lt;/b&gt;" style="ellipse;whiteSpace=wrap;html=1;" vertex="1" parent="1">
          <mxGeometry x="540" y="260" width="120" height="40" as="geometry" />
        </mxCell>
        <mxCell id="Ff_WdvhhRBHIiXIWQYBH-104" value="&lt;b&gt;Age&lt;/b&gt;" style="ellipse;whiteSpace=wrap;html=1;" vertex="1" parent="1">
          <mxGeometry x="540" y="390" width="120" height="40" as="geometry" />
        </mxCell>
        <mxCell id="Ff_WdvhhRBHIiXIWQYBH-105" value="&lt;b&gt;Gender&lt;/b&gt;" style="ellipse;whiteSpace=wrap;html=1;" vertex="1" parent="1">
          <mxGeometry x="481" y="440" width="120" height="40" as="geometry" />
        </mxCell>
        <mxCell id="Ff_WdvhhRBHIiXIWQYBH-106" value="&lt;b&gt;Qualification&lt;/b&gt;" style="ellipse;whiteSpace=wrap;html=1;" vertex="1" parent="1">
          <mxGeometry x="190" y="260" width="120" height="40" as="geometry" />
        </mxCell>
        <mxCell id="Ff_WdvhhRBHIiXIWQYBH-107" value="&lt;b&gt;ContactNo&lt;/b&gt;" style="ellipse;whiteSpace=wrap;html=1;" vertex="1" parent="1">
          <mxGeometry x="190" y="390" width="120" height="40" as="geometry" />
        </mxCell>
        <mxCell id="Ff_WdvhhRBHIiXIWQYBH-108" value="&lt;b&gt;CivilStatus&lt;/b&gt;" style="ellipse;whiteSpace=wrap;html=1;" vertex="1" parent="1">
          <mxGeometry x="190" y="440" width="120" height="40" as="geometry" />
        </mxCell>
        <mxCell id="Ff_WdvhhRBHIiXIWQYBH-112" style="rounded=0;orthogonalLoop=1;jettySize=auto;html=1;exitX=0;exitY=1;exitDx=0;exitDy=0;entryX=0.75;entryY=0;entryDx=0;entryDy=0;endArrow=none;endFill=0;" edge="1" parent="1" source="Ff_WdvhhRBHIiXIWQYBH-109" target="Ff_WdvhhRBHIiXIWQYBH-1">
          <mxGeometry relative="1" as="geometry" />
        </mxCell>
        <mxCell id="Ff_WdvhhRBHIiXIWQYBH-109" value="&lt;b&gt;FamilyCount&lt;/b&gt;" style="ellipse;whiteSpace=wrap;html=1;" vertex="1" parent="1">
          <mxGeometry x="433" y="140" width="120" height="40" as="geometry" />
        </mxCell>
        <mxCell id="Ff_WdvhhRBHIiXIWQYBH-110" value="&lt;b&gt;IsBringingFamily&lt;/b&gt;" style="ellipse;whiteSpace=wrap;html=1;" vertex="1" parent="1">
          <mxGeometry x="235" y="140" width="155" height="40" as="geometry" />
        </mxCell>
        <mxCell id="Ff_WdvhhRBHIiXIWQYBH-111" style="rounded=0;orthogonalLoop=1;jettySize=auto;html=1;exitX=1;exitY=1;exitDx=0;exitDy=0;entryX=0.139;entryY=-0.062;entryDx=0;entryDy=0;entryPerimeter=0;endArrow=none;endFill=0;" edge="1" parent="1" source="Ff_WdvhhRBHIiXIWQYBH-101" target="Ff_WdvhhRBHIiXIWQYBH-1">
          <mxGeometry relative="1" as="geometry" />
        </mxCell>
        <mxCell id="Ff_WdvhhRBHIiXIWQYBH-113" style="rounded=0;orthogonalLoop=1;jettySize=auto;html=1;exitX=0;exitY=1;exitDx=0;exitDy=0;endArrow=none;endFill=0;entryX=0.842;entryY=0.081;entryDx=0;entryDy=0;entryPerimeter=0;" edge="1" parent="1" source="Ff_WdvhhRBHIiXIWQYBH-102" target="Ff_WdvhhRBHIiXIWQYBH-1">
          <mxGeometry relative="1" as="geometry">
            <mxPoint x="470" y="340" as="targetPoint" />
          </mxGeometry>
        </mxCell>
        <mxCell id="Ff_WdvhhRBHIiXIWQYBH-114" style="rounded=0;orthogonalLoop=1;jettySize=auto;html=1;exitX=0.75;exitY=1;exitDx=0;exitDy=0;entryX=0.036;entryY=0.293;entryDx=0;entryDy=0;entryPerimeter=0;endArrow=none;endFill=0;" edge="1" parent="1" source="Ff_WdvhhRBHIiXIWQYBH-1" target="Ff_WdvhhRBHIiXIWQYBH-105">
          <mxGeometry relative="1" as="geometry" />
        </mxCell>
        <mxCell id="Ff_WdvhhRBHIiXIWQYBH-117" style="rounded=0;orthogonalLoop=1;jettySize=auto;html=1;exitX=0;exitY=1;exitDx=0;exitDy=0;entryX=0.949;entryY=0.257;entryDx=0;entryDy=0;entryPerimeter=0;endArrow=none;endFill=0;" edge="1" parent="1" source="Ff_WdvhhRBHIiXIWQYBH-1" target="Ff_WdvhhRBHIiXIWQYBH-107">
          <mxGeometry relative="1" as="geometry" />
        </mxCell>
        <mxCell id="Ff_WdvhhRBHIiXIWQYBH-118" style="rounded=0;orthogonalLoop=1;jettySize=auto;html=1;exitX=1;exitY=1;exitDx=0;exitDy=0;entryX=0.938;entryY=0.771;entryDx=0;entryDy=0;entryPerimeter=0;endArrow=none;endFill=0;" edge="1" parent="1" source="Ff_WdvhhRBHIiXIWQYBH-106" target="Ff_WdvhhRBHIiXIWQYBH-29">
          <mxGeometry relative="1" as="geometry" />
        </mxCell>
        <mxCell id="Ff_WdvhhRBHIiXIWQYBH-119" style="rounded=0;orthogonalLoop=1;jettySize=auto;html=1;exitX=1;exitY=1;exitDx=0;exitDy=0;entryX=-0.062;entryY=1.033;entryDx=0;entryDy=0;entryPerimeter=0;endArrow=none;endFill=0;" edge="1" parent="1" source="Ff_WdvhhRBHIiXIWQYBH-110" target="Ff_WdvhhRBHIiXIWQYBH-30">
          <mxGeometry relative="1" as="geometry" />
        </mxCell>
        <mxCell id="Ff_WdvhhRBHIiXIWQYBH-120" style="rounded=0;orthogonalLoop=1;jettySize=auto;html=1;exitX=0;exitY=0.5;exitDx=0;exitDy=0;entryX=0.925;entryY=0.033;entryDx=0;entryDy=0;entryPerimeter=0;endArrow=none;endFill=0;" edge="1" parent="1" source="Ff_WdvhhRBHIiXIWQYBH-103" target="Ff_WdvhhRBHIiXIWQYBH-1">
          <mxGeometry relative="1" as="geometry" />
        </mxCell>
        <mxCell id="Ff_WdvhhRBHIiXIWQYBH-124" style="rounded=0;orthogonalLoop=1;jettySize=auto;html=1;exitX=0;exitY=0.5;exitDx=0;exitDy=0;entryX=0.5;entryY=0;entryDx=0;entryDy=0;endArrow=none;endFill=0;" edge="1" parent="1" source="Ff_WdvhhRBHIiXIWQYBH-121" target="Ff_WdvhhRBHIiXIWQYBH-123">
          <mxGeometry relative="1" as="geometry" />
        </mxCell>
        <mxCell id="Ff_WdvhhRBHIiXIWQYBH-128" style="rounded=0;orthogonalLoop=1;jettySize=auto;html=1;exitX=0.5;exitY=1;exitDx=0;exitDy=0;entryX=0.5;entryY=0;entryDx=0;entryDy=0;endArrow=none;endFill=0;" edge="1" parent="1" source="Ff_WdvhhRBHIiXIWQYBH-121" target="Ff_WdvhhRBHIiXIWQYBH-126">
          <mxGeometry relative="1" as="geometry" />
        </mxCell>
        <mxCell id="Ff_WdvhhRBHIiXIWQYBH-121" value="&lt;b&gt;Name&lt;/b&gt;" style="ellipse;whiteSpace=wrap;html=1;dashed=1;" vertex="1" parent="1">
          <mxGeometry x="290" y="490" width="120" height="40" as="geometry" />
        </mxCell>
        <mxCell id="Ff_WdvhhRBHIiXIWQYBH-122" style="rounded=0;orthogonalLoop=1;jettySize=auto;html=1;exitX=0.5;exitY=0;exitDx=0;exitDy=0;entryX=0.401;entryY=0.938;entryDx=0;entryDy=0;entryPerimeter=0;endArrow=none;endFill=0;" edge="1" parent="1" source="Ff_WdvhhRBHIiXIWQYBH-121" target="Ff_WdvhhRBHIiXIWQYBH-1">
          <mxGeometry relative="1" as="geometry" />
        </mxCell>
        <mxCell id="Ff_WdvhhRBHIiXIWQYBH-123" value="FirstName" style="ellipse;whiteSpace=wrap;html=1;" vertex="1" parent="1">
          <mxGeometry x="100" y="550" width="120" height="40" as="geometry" />
        </mxCell>
        <mxCell id="Ff_WdvhhRBHIiXIWQYBH-125" value="FirstName" style="ellipse;whiteSpace=wrap;html=1;" vertex="1" parent="1">
          <mxGeometry x="150" y="600" width="120" height="40" as="geometry" />
        </mxCell>
        <mxCell id="Ff_WdvhhRBHIiXIWQYBH-126" value="FirstName" style="ellipse;whiteSpace=wrap;html=1;" vertex="1" parent="1">
          <mxGeometry x="280" y="580" width="120" height="40" as="geometry" />
        </mxCell>
        <mxCell id="Ff_WdvhhRBHIiXIWQYBH-127" style="rounded=0;orthogonalLoop=1;jettySize=auto;html=1;exitX=0;exitY=1;exitDx=0;exitDy=0;entryX=0.675;entryY=-0.029;entryDx=0;entryDy=0;entryPerimeter=0;endArrow=none;endFill=0;" edge="1" parent="1" source="Ff_WdvhhRBHIiXIWQYBH-121" target="Ff_WdvhhRBHIiXIWQYBH-125">
          <mxGeometry relative="1" as="geometry" />
        </mxCell>
      </root>
    </mxGraphModel>
  </diagram>
</mxfile>
